<svg xmlns="http://www.w3.org/2000/svg" xmlns:xlink="http://www.w3.org/1999/xlink" width="500" zoomAndPan="magnify" viewBox="0 0 375 374.999991" height="500" preserveAspectRatio="xMidYMid meet" version="1.2"><defs><clipPath id="b62e0a32a9"><path d="M 24.476562 24.476562 L 354.476562 24.476562 L 354.476562 354.476562 L 24.476562 354.476562 Z M 24.476562 24.476562 "/></clipPath><clipPath id="334a2206bc"><path d="M 24.476562 24.476562 L 230 24.476562 L 230 354.476562 L 24.476562 354.476562 Z M 24.476562 24.476562 "/></clipPath></defs><g id="982957531e"><g clip-rule="nonzero" clip-path="url(#b62e0a32a9)"><path style=" stroke:none;fill-rule:nonzero;fill:#ffdbe0;fill-opacity:1;" d="M 190.085938 24.808594 C 99.09375 24.480469 24.644531 99.929688 24.644531 190.921875 L 24.644531 314.679688 C 24.644531 336.660156 42.460938 354.476562 64.441406 354.476562 L 314.511719 354.476562 C 336.492188 354.476562 354.3125 336.660156 354.3125 314.679688 L 354.3125 189.644531 C 354.3125 98.8125 280.84375 25.140625 190.085938 24.808594 Z M 190.085938 24.808594 "/></g><g clip-rule="nonzero" clip-path="url(#334a2206bc)"><path style=" stroke:none;fill-rule:nonzero;fill:#ffb5c0;fill-opacity:1;" d="M 104.242188 314.679688 L 104.242188 190.921875 C 104.242188 113.769531 157.765625 47.804688 229.515625 29.71875 C 216.882812 26.566406 203.683594 24.859375 190.085938 24.808594 C 99.09375 24.480469 24.644531 99.929688 24.644531 190.921875 L 24.644531 314.679688 C 24.644531 336.660156 42.460938 354.476562 64.441406 354.476562 L 144.039062 354.476562 C 122.058594 354.476562 104.242188 336.660156 104.242188 314.679688 Z M 104.242188 314.679688 "/></g><path style=" stroke:none;fill-rule:nonzero;fill:#ff8e9e;fill-opacity:1;" d="M 294.613281 189.644531 C 294.613281 191.363281 294.570312 193.082031 294.488281 194.800781 C 294.402344 196.519531 294.277344 198.234375 294.105469 199.949219 C 293.9375 201.660156 293.726562 203.367188 293.476562 205.070312 C 293.222656 206.773438 292.929688 208.464844 292.59375 210.152344 C 292.257812 211.84375 291.878906 213.519531 291.460938 215.1875 C 291.042969 216.859375 290.585938 218.515625 290.085938 220.164062 C 289.585938 221.808594 289.046875 223.441406 288.46875 225.0625 C 287.886719 226.683594 287.269531 228.289062 286.609375 229.878906 C 285.953125 231.464844 285.253906 233.039062 284.519531 234.59375 C 283.785156 236.148438 283.011719 237.6875 282.199219 239.203125 C 281.386719 240.722656 280.539062 242.21875 279.65625 243.695312 C 278.769531 245.167969 277.851562 246.621094 276.894531 248.054688 C 275.9375 249.484375 274.949219 250.890625 273.921875 252.273438 C 272.898438 253.65625 271.839844 255.011719 270.75 256.339844 C 269.65625 257.671875 268.535156 258.972656 267.378906 260.25 C 266.222656 261.523438 265.035156 262.769531 263.820312 263.984375 C 262.601562 265.203125 261.355469 266.386719 260.082031 267.542969 C 258.808594 268.699219 257.503906 269.824219 256.175781 270.914062 C 254.84375 272.003906 253.488281 273.0625 252.105469 274.089844 C 250.726562 275.113281 249.316406 276.105469 247.886719 277.058594 C 246.457031 278.015625 245.003906 278.9375 243.527344 279.820312 C 242.050781 280.707031 240.554688 281.554688 239.039062 282.363281 C 237.519531 283.175781 235.984375 283.949219 234.429688 284.683594 C 232.875 285.421875 231.300781 286.117188 229.710938 286.777344 C 228.121094 287.433594 226.515625 288.054688 224.898438 288.632812 C 223.277344 289.210938 221.644531 289.753906 219.996094 290.25 C 218.351562 290.75 216.691406 291.210938 215.023438 291.628906 C 213.355469 292.046875 211.675781 292.421875 209.988281 292.757812 C 208.300781 293.09375 206.605469 293.386719 204.902344 293.640625 C 203.203125 293.894531 201.496094 294.105469 199.78125 294.273438 C 198.070312 294.441406 196.355469 294.566406 194.636719 294.652344 C 192.917969 294.738281 191.199219 294.777344 189.476562 294.777344 C 187.757812 294.777344 186.039062 294.738281 184.320312 294.652344 C 182.601562 294.566406 180.882812 294.441406 179.171875 294.273438 C 177.460938 294.105469 175.753906 293.894531 174.050781 293.640625 C 172.347656 293.386719 170.652344 293.09375 168.964844 292.757812 C 167.277344 292.421875 165.601562 292.046875 163.929688 291.628906 C 162.261719 291.210938 160.605469 290.75 158.957031 290.25 C 157.3125 289.753906 155.679688 289.210938 154.058594 288.632812 C 152.4375 288.054688 150.832031 287.433594 149.242188 286.777344 C 147.652344 286.117188 146.082031 285.421875 144.527344 284.683594 C 142.972656 283.949219 141.433594 283.175781 139.917969 282.363281 C 138.398438 281.554688 136.902344 280.707031 135.425781 279.820312 C 133.949219 278.9375 132.496094 278.015625 131.066406 277.058594 C 129.636719 276.105469 128.230469 275.113281 126.847656 274.089844 C 125.464844 273.0625 124.109375 272.003906 122.78125 270.914062 C 121.449219 269.824219 120.148438 268.699219 118.871094 267.542969 C 117.597656 266.386719 116.351562 265.203125 115.136719 263.984375 C 113.917969 262.769531 112.734375 261.523438 111.578125 260.25 C 110.421875 258.972656 109.296875 257.671875 108.207031 256.339844 C 107.113281 255.011719 106.058594 253.65625 105.03125 252.273438 C 104.007812 250.890625 103.015625 249.484375 102.058594 248.054688 C 101.105469 246.621094 100.183594 245.167969 99.300781 243.695312 C 98.414062 242.21875 97.566406 240.722656 96.757812 239.203125 C 95.945312 237.6875 95.171875 236.148438 94.4375 234.59375 C 93.699219 233.039062 93.003906 231.464844 92.34375 229.878906 C 91.6875 228.289062 91.066406 226.683594 90.488281 225.0625 C 89.90625 223.441406 89.367188 221.808594 88.867188 220.164062 C 88.371094 218.515625 87.910156 216.859375 87.492188 215.1875 C 87.074219 213.519531 86.699219 211.84375 86.363281 210.152344 C 86.027344 208.464844 85.730469 206.773438 85.480469 205.070312 C 85.226562 203.367188 85.015625 201.660156 84.847656 199.949219 C 84.679688 198.234375 84.554688 196.519531 84.46875 194.800781 C 84.382812 193.082031 84.34375 191.363281 84.34375 189.644531 C 84.34375 187.921875 84.382812 186.203125 84.46875 184.484375 C 84.554688 182.765625 84.679688 181.050781 84.847656 179.339844 C 85.015625 177.625 85.226562 175.917969 85.480469 174.214844 C 85.730469 172.515625 86.027344 170.820312 86.363281 169.132812 C 86.699219 167.445312 87.074219 165.765625 87.492188 164.097656 C 87.910156 162.429688 88.371094 160.769531 88.867188 159.125 C 89.367188 157.476562 89.90625 155.84375 90.488281 154.222656 C 91.066406 152.605469 91.6875 151 92.34375 149.410156 C 93.003906 147.820312 93.699219 146.246094 94.4375 144.691406 C 95.171875 143.136719 95.945312 141.601562 96.757812 140.082031 C 97.566406 138.566406 98.414062 137.070312 99.300781 135.59375 C 100.183594 134.117188 101.105469 132.664062 102.058594 131.234375 C 103.015625 129.800781 104.007812 128.394531 105.03125 127.015625 C 106.058594 125.632812 107.113281 124.277344 108.207031 122.945312 C 109.296875 121.617188 110.421875 120.3125 111.578125 119.039062 C 112.734375 117.761719 113.917969 116.519531 115.136719 115.300781 C 116.351562 114.085938 117.597656 112.898438 118.871094 111.742188 C 120.148438 110.585938 121.449219 109.464844 122.78125 108.371094 C 124.109375 107.28125 125.464844 106.222656 126.847656 105.199219 C 128.230469 104.171875 129.636719 103.183594 131.066406 102.226562 C 132.496094 101.269531 133.949219 100.351562 135.425781 99.464844 C 136.902344 98.582031 138.398438 97.734375 139.917969 96.921875 C 141.433594 96.109375 142.972656 95.335938 144.527344 94.601562 C 146.082031 93.867188 147.652344 93.167969 149.242188 92.511719 C 150.832031 91.851562 152.4375 91.234375 154.058594 90.652344 C 155.679688 90.074219 157.3125 89.535156 158.957031 89.035156 C 160.605469 88.535156 162.261719 88.078125 163.929688 87.660156 C 165.601562 87.242188 167.277344 86.863281 168.964844 86.527344 C 170.652344 86.191406 172.347656 85.898438 174.050781 85.644531 C 175.753906 85.394531 177.460938 85.183594 179.171875 85.015625 C 180.882812 84.84375 182.601562 84.71875 184.320312 84.632812 C 186.039062 84.550781 187.757812 84.507812 189.476562 84.507812 C 191.199219 84.507812 192.917969 84.550781 194.636719 84.632812 C 196.355469 84.71875 198.070312 84.84375 199.78125 85.015625 C 201.496094 85.183594 203.203125 85.394531 204.902344 85.644531 C 206.605469 85.898438 208.300781 86.191406 209.988281 86.527344 C 211.675781 86.863281 213.355469 87.242188 215.023438 87.660156 C 216.691406 88.078125 218.351562 88.535156 219.996094 89.035156 C 221.644531 89.535156 223.277344 90.074219 224.898438 90.652344 C 226.515625 91.234375 228.121094 91.851562 229.710938 92.511719 C 231.300781 93.167969 232.875 93.867188 234.429688 94.601562 C 235.984375 95.335938 237.519531 96.109375 239.039062 96.921875 C 240.554688 97.734375 242.050781 98.582031 243.527344 99.464844 C 245.003906 100.351562 246.457031 101.269531 247.886719 102.226562 C 249.320312 103.183594 250.726562 104.171875 252.105469 105.199219 C 253.488281 106.222656 254.84375 107.28125 256.175781 108.371094 C 257.503906 109.464844 258.808594 110.585938 260.082031 111.742188 C 261.355469 112.898438 262.601562 114.085938 263.820312 115.300781 C 265.035156 116.519531 266.222656 117.761719 267.378906 119.039062 C 268.535156 120.3125 269.65625 121.617188 270.75 122.945312 C 271.839844 124.277344 272.898438 125.632812 273.921875 127.015625 C 274.949219 128.394531 275.9375 129.800781 276.894531 131.234375 C 277.851562 132.664062 278.769531 134.117188 279.65625 135.59375 C 280.539062 137.070312 281.386719 138.566406 282.199219 140.082031 C 283.011719 141.601562 283.785156 143.136719 284.519531 144.691406 C 285.253906 146.246094 285.953125 147.820312 286.609375 149.410156 C 287.269531 151 287.886719 152.605469 288.46875 154.222656 C 289.046875 155.84375 289.585938 157.476562 290.085938 159.125 C 290.585938 160.769531 291.042969 162.429688 291.460938 164.097656 C 291.878906 165.765625 292.257812 167.445312 292.59375 169.132812 C 292.929688 170.820312 293.222656 172.515625 293.476562 174.214844 C 293.726562 175.917969 293.9375 177.625 294.105469 179.339844 C 294.277344 181.050781 294.402344 182.765625 294.488281 184.484375 C 294.570312 186.203125 294.613281 187.921875 294.613281 189.644531 Z M 294.613281 189.644531 "/><path style=" stroke:none;fill-rule:nonzero;fill:#ffdbe0;fill-opacity:1;" d="M 150.3125 228.808594 C 144.289062 222.785156 139.847656 215.667969 137.109375 207.65625 C 135.894531 204.097656 136.832031 200.074219 139.5 197.410156 L 197.242188 139.664062 C 199.910156 136.996094 203.929688 136.0625 207.488281 137.277344 C 215.503906 140.015625 222.617188 144.457031 228.640625 150.476562 C 234.664062 156.5 239.105469 163.617188 241.84375 171.628906 C 243.058594 175.1875 242.121094 179.210938 239.457031 181.878906 L 181.710938 239.621094 C 179.046875 242.289062 175.023438 243.226562 171.464844 242.007812 C 163.453125 239.273438 156.335938 234.832031 150.3125 228.808594 Z M 150.3125 228.808594 "/><path style=" stroke:none;fill-rule:nonzero;fill:#ea5b70;fill-opacity:1;" d="M 146.554688 134.738281 C 145.019531 134.738281 143.5 134.027344 142.527344 132.6875 L 136.3125 124.132812 C 134.699219 121.910156 135.191406 118.796875 137.414062 117.183594 C 139.636719 115.566406 142.75 116.0625 144.363281 118.285156 L 150.578125 126.835938 C 152.191406 129.0625 151.699219 132.171875 149.476562 133.785156 C 148.59375 134.429688 147.570312 134.738281 146.554688 134.738281 Z M 146.554688 134.738281 "/><path style=" stroke:none;fill-rule:nonzero;fill:#ea5b70;fill-opacity:1;" d="M 167.183594 124.21875 C 165.085938 124.21875 163.136719 122.882812 162.453125 120.78125 L 159.1875 110.722656 C 158.335938 108.109375 159.765625 105.304688 162.378906 104.457031 C 164.992188 103.609375 167.800781 105.035156 168.648438 107.648438 L 171.914062 117.707031 C 172.765625 120.320312 171.335938 123.125 168.722656 123.972656 C 168.210938 124.140625 167.691406 124.21875 167.183594 124.21875 Z M 167.183594 124.21875 "/><path style=" stroke:none;fill-rule:nonzero;fill:#ea5b70;fill-opacity:1;" d="M 119.660156 171.746094 C 119.152344 171.746094 118.632812 171.667969 118.121094 171.5 L 108.066406 168.234375 C 105.453125 167.382812 104.023438 164.578125 104.871094 161.964844 C 105.71875 159.351562 108.53125 157.921875 111.140625 158.769531 L 121.195312 162.039062 C 123.808594 162.886719 125.242188 165.695312 124.390625 168.308594 C 123.707031 170.410156 121.757812 171.746094 119.660156 171.746094 Z M 119.660156 171.746094 "/><path style=" stroke:none;fill-rule:nonzero;fill:#ea5b70;fill-opacity:1;" d="M 130.171875 151.113281 C 129.160156 151.113281 128.136719 150.804688 127.253906 150.160156 L 118.699219 143.945312 C 116.476562 142.332031 115.984375 139.21875 117.597656 136.996094 C 119.214844 134.773438 122.328125 134.28125 124.546875 135.898438 L 133.101562 142.113281 C 135.324219 143.726562 135.816406 146.839844 134.203125 149.0625 C 133.230469 150.402344 131.710938 151.113281 130.171875 151.113281 Z M 130.171875 151.113281 "/><path style=" stroke:none;fill-rule:nonzero;fill:#ea5b70;fill-opacity:1;" d="M 116.058594 194.617188 L 105.484375 194.617188 C 102.738281 194.617188 100.511719 192.390625 100.511719 189.644531 C 100.511719 186.894531 102.738281 184.667969 105.484375 184.667969 L 116.058594 184.667969 C 118.804688 184.667969 121.03125 186.894531 121.03125 189.644531 C 121.03125 192.390625 118.804688 194.617188 116.058594 194.617188 Z M 116.058594 194.617188 "/><path style=" stroke:none;fill-rule:nonzero;fill:#ea5b70;fill-opacity:1;" d="M 190.058594 120.617188 C 187.3125 120.617188 185.085938 118.390625 185.085938 115.640625 L 185.085938 105.070312 C 185.085938 102.324219 187.3125 100.09375 190.058594 100.09375 C 192.808594 100.09375 195.035156 102.324219 195.035156 105.070312 L 195.035156 115.640625 C 195.035156 118.390625 192.808594 120.617188 190.058594 120.617188 Z M 190.058594 120.617188 "/><path style=" stroke:none;fill-rule:nonzero;fill:#ea5b70;fill-opacity:1;" d="M 121.625 244.339844 C 120.089844 244.339844 118.574219 243.628906 117.597656 242.289062 C 115.984375 240.066406 116.476562 236.953125 118.699219 235.339844 L 127.253906 229.125 C 129.476562 227.507812 132.585938 228 134.203125 230.226562 C 135.816406 232.449219 135.324219 235.558594 133.101562 237.175781 L 124.546875 243.390625 C 123.664062 244.03125 122.640625 244.339844 121.625 244.339844 Z M 121.625 244.339844 "/><path style=" stroke:none;fill-rule:nonzero;fill:#ea5b70;fill-opacity:1;" d="M 109.601562 220.761719 C 107.503906 220.761719 105.554688 219.425781 104.871094 217.320312 C 104.023438 214.710938 105.453125 211.902344 108.066406 211.054688 L 118.121094 207.785156 C 120.734375 206.9375 123.542969 208.367188 124.390625 210.980469 C 125.238281 213.59375 123.808594 216.398438 121.195312 217.246094 L 111.140625 220.515625 C 110.628906 220.683594 110.109375 220.761719 109.601562 220.761719 Z M 109.601562 220.761719 "/><path style=" stroke:none;fill-rule:nonzero;fill:#ea5b70;fill-opacity:1;" d="M 163.917969 275.074219 C 163.410156 275.074219 162.890625 274.996094 162.378906 274.832031 C 159.765625 273.984375 158.335938 271.175781 159.1875 268.5625 L 162.453125 258.507812 C 163.300781 255.894531 166.109375 254.464844 168.722656 255.3125 C 171.335938 256.160156 172.765625 258.96875 171.917969 261.582031 L 168.648438 271.636719 C 167.964844 273.738281 166.015625 275.074219 163.917969 275.074219 Z M 163.917969 275.074219 "/><path style=" stroke:none;fill-rule:nonzero;fill:#ea5b70;fill-opacity:1;" d="M 140.332031 263.054688 C 139.320312 263.054688 138.296875 262.746094 137.414062 262.101562 C 135.191406 260.488281 134.699219 257.378906 136.3125 255.15625 L 142.527344 246.601562 C 144.144531 244.375 147.253906 243.886719 149.476562 245.5 C 151.699219 247.113281 152.191406 250.226562 150.578125 252.449219 L 144.363281 261.003906 C 143.390625 262.34375 141.871094 263.054688 140.332031 263.054688 Z M 140.332031 263.054688 "/><path style=" stroke:none;fill-rule:nonzero;fill:#ea5b70;fill-opacity:1;" d="M 189.710938 279.191406 C 186.960938 279.191406 184.734375 276.964844 184.734375 274.214844 L 184.734375 263.644531 C 184.734375 260.894531 186.960938 258.667969 189.710938 258.667969 C 192.457031 258.667969 194.683594 260.894531 194.683594 263.644531 L 194.683594 274.214844 C 194.683594 276.964844 192.457031 279.191406 189.710938 279.191406 Z M 189.710938 279.191406 "/><path style=" stroke:none;fill-rule:nonzero;fill:#ea5b70;fill-opacity:1;" d="M 233.5625 134.738281 C 232.546875 134.738281 231.523438 134.429688 230.640625 133.785156 C 228.417969 132.171875 227.925781 129.0625 229.542969 126.835938 L 235.757812 118.285156 C 237.371094 116.0625 240.484375 115.566406 242.707031 117.183594 C 244.929688 118.796875 245.421875 121.910156 243.804688 124.132812 L 237.589844 132.6875 C 236.617188 134.027344 235.097656 134.738281 233.5625 134.738281 Z M 233.5625 134.738281 "/><path style=" stroke:none;fill-rule:nonzero;fill:#ea5b70;fill-opacity:1;" d="M 212.933594 124.21875 C 212.425781 124.21875 211.90625 124.140625 211.394531 123.976562 C 208.785156 123.125 207.351562 120.320312 208.203125 117.707031 L 211.46875 107.648438 C 212.316406 105.039062 215.125 103.609375 217.738281 104.457031 C 220.351562 105.304688 221.78125 108.113281 220.933594 110.722656 L 217.664062 120.78125 C 216.980469 122.882812 215.03125 124.21875 212.933594 124.21875 Z M 212.933594 124.21875 "/><path style=" stroke:none;fill-rule:nonzero;fill:#ea5b70;fill-opacity:1;" d="M 260.457031 171.746094 C 258.359375 171.746094 256.410156 170.410156 255.726562 168.304688 C 254.878906 165.695312 256.308594 162.886719 258.921875 162.039062 L 268.976562 158.769531 C 271.589844 157.921875 274.398438 159.351562 275.246094 161.964844 C 276.09375 164.578125 274.664062 167.382812 272.050781 168.230469 L 261.996094 171.5 C 261.484375 171.667969 260.964844 171.746094 260.457031 171.746094 Z M 260.457031 171.746094 "/><path style=" stroke:none;fill-rule:nonzero;fill:#ea5b70;fill-opacity:1;" d="M 249.945312 151.113281 C 248.40625 151.113281 246.890625 150.402344 245.914062 149.0625 C 244.300781 146.839844 244.792969 143.726562 247.015625 142.113281 L 255.570312 135.898438 C 257.792969 134.28125 260.902344 134.773438 262.519531 136.996094 C 264.132812 139.21875 263.640625 142.332031 261.417969 143.945312 L 252.863281 150.160156 C 251.980469 150.804688 250.957031 151.113281 249.945312 151.113281 Z M 249.945312 151.113281 "/><path style=" stroke:none;fill-rule:nonzero;fill:#ea5b70;fill-opacity:1;" d="M 274.632812 194.617188 L 264.058594 194.617188 C 261.3125 194.617188 259.085938 192.390625 259.085938 189.644531 C 259.085938 186.894531 261.3125 184.667969 264.058594 184.667969 L 274.632812 184.667969 C 277.378906 184.667969 279.605469 186.894531 279.605469 189.644531 C 279.605469 192.390625 277.378906 194.617188 274.632812 194.617188 Z M 274.632812 194.617188 "/><path style=" stroke:none;fill-rule:nonzero;fill:#ea5b70;fill-opacity:1;" d="M 258.492188 244.339844 C 257.476562 244.339844 256.453125 244.03125 255.570312 243.390625 L 247.015625 237.175781 C 244.792969 235.558594 244.300781 232.449219 245.917969 230.226562 C 247.53125 228.003906 250.644531 227.507812 252.867188 229.125 L 261.417969 235.339844 C 263.644531 236.953125 264.136719 240.066406 262.519531 242.289062 C 261.546875 243.628906 260.027344 244.339844 258.492188 244.339844 Z M 258.492188 244.339844 "/><path style=" stroke:none;fill-rule:nonzero;fill:#ea5b70;fill-opacity:1;" d="M 270.515625 220.761719 C 270.007812 220.761719 269.488281 220.683594 268.980469 220.515625 L 258.921875 217.25 C 256.308594 216.398438 254.878906 213.59375 255.726562 210.980469 C 256.574219 208.367188 259.386719 206.9375 261.996094 207.785156 L 272.054688 211.054688 C 274.664062 211.902344 276.097656 214.710938 275.246094 217.324219 C 274.5625 219.425781 272.613281 220.761719 270.515625 220.761719 Z M 270.515625 220.761719 "/><path style=" stroke:none;fill-rule:nonzero;fill:#ea5b70;fill-opacity:1;" d="M 216.199219 275.074219 C 214.101562 275.074219 212.152344 273.738281 211.46875 271.636719 L 208.203125 261.578125 C 207.351562 258.96875 208.78125 256.160156 211.394531 255.3125 C 214.007812 254.464844 216.816406 255.890625 217.664062 258.503906 L 220.929688 268.5625 C 221.78125 271.175781 220.351562 273.980469 217.738281 274.832031 C 217.226562 274.996094 216.710938 275.074219 216.199219 275.074219 Z M 216.199219 275.074219 "/><path style=" stroke:none;fill-rule:nonzero;fill:#ea5b70;fill-opacity:1;" d="M 239.785156 263.054688 C 238.246094 263.054688 236.730469 262.34375 235.753906 261.003906 L 229.542969 252.449219 C 227.925781 250.226562 228.417969 247.113281 230.640625 245.5 C 232.863281 243.882812 235.976562 244.378906 237.589844 246.601562 L 243.804688 255.15625 C 245.421875 257.378906 244.925781 260.488281 242.703125 262.101562 C 241.820312 262.746094 240.796875 263.054688 239.785156 263.054688 Z M 239.785156 263.054688 "/><path style=" stroke:none;fill-rule:nonzero;fill:#ea5b70;fill-opacity:1;" d="M 179.648438 59.011719 L 186.71875 69.617188 C 188.03125 71.585938 190.925781 71.585938 192.238281 69.617188 L 199.304688 59.011719 C 200.773438 56.808594 199.195312 53.855469 196.546875 53.855469 L 182.40625 53.855469 C 179.757812 53.855469 178.179688 56.808594 179.648438 59.011719 Z M 179.648438 59.011719 "/></g></svg>